<svg xmlns="http://www.w3.org/2000/svg" xmlns:xlink="http://www.w3.org/1999/xlink" width="23" height="23.001" viewBox="0 0 23 23.001"><defs><clipPath id="a"><path d="M348.5-30a1.5,1.5,0,0,1-1.5-1.5,1.5,1.5,0,0,1,1.5-1.5,1.5,1.5,0,0,1,1.5,1.5A1.5,1.5,0,0,1,348.5-30Z" fill="none"/></clipPath><clipPath id="b"><path d="M0,0H375V-792H0Z" fill="none"/></clipPath></defs><g transform="translate(-330.5 45.501)"><path d="M2.75-.5h16.5A3.331,3.331,0,0,1,22.5,2.657V14.469A3.039,3.039,0,0,1,19.461,17.5H2.539A3.039,3.039,0,0,1-.5,14.469V2.742A3.368,3.368,0,0,1,.363.632,3.142,3.142,0,0,1,2.75-.5Zm16.711,17A2.037,2.037,0,0,0,21.5,14.469V2.657A2.323,2.323,0,0,0,19.25.5H2.75A2.407,2.407,0,0,0,.5,2.742V14.469A2.037,2.037,0,0,0,2.539,16.5Z" transform="translate(331 -40)" fill="#949494"/><path d="M.5,9.008l-1-.016.022-1.341c0-2.34.512-3.517,3.669-4.745l.044-.015c.094-.027,9.459-2.7,11.057-3.139,1.3-.353,2.034-.338,2.545.052.551.421.664,1.178.664,2.185V3.82h-1V1.989c0-.508-.028-1.2-.272-1.39-.216-.165-.779-.125-1.675.118C13,1.14,4.045,3.7,3.532,3.847.782,4.919.522,5.745.522,7.655t0,.008Z" transform="translate(331 -45)" fill="#949494"/><g clip-path="url(#a)"><g clip-path="url(#b)"><path d="M342-38h13v13H342Z" fill="#949494"/></g></g></g></svg>