<svg xmlns="http://www.w3.org/2000/svg" xmlns:xlink="http://www.w3.org/1999/xlink" width="35" height="34" viewBox="0 0 35 34"><defs><clipPath id="a"><path d="M193.5-37a1.5,1.5,0,0,0-1.5,1.5,1.5,1.5,0,0,0,1.5,1.5,1.5,1.5,0,0,0,1.5-1.5A1.493,1.493,0,0,0,193.5-37Z" fill="none"/></clipPath><clipPath id="b"><path d="M0,0H375V-792H0Z" fill="none"/></clipPath><clipPath id="c"><path d="M177.5-37a1.5,1.5,0,0,0-1.5,1.5,1.5,1.5,0,0,0,1.5,1.5,1.5,1.5,0,0,0,1.5-1.5A1.493,1.493,0,0,0,177.5-37Z" fill="none"/></clipPath><clipPath id="e"><path d="M176.788-45.67h20.176l.517-.044,9.457-21.267a.716.716,0,0,0-.411-.96.772.772,0,0,0-1,.393l-9.062,20.423H176.651a5.381,5.381,0,0,0-3.938,2.5,4.826,4.826,0,0,0-.7,2.88A5.322,5.322,0,0,0,177.472-37h20.936a.762.762,0,0,0,.775-.742.762.762,0,0,0-.775-.742H177.472a3.806,3.806,0,0,1-3.923-3.375,3.478,3.478,0,0,1,.5-2.051A3.838,3.838,0,0,1,176.788-45.67Z" fill="none"/></clipPath></defs><g transform="translate(-172 67)"><g transform="translate(0 1)" clip-path="url(#a)"><g clip-path="url(#b)"><path d="M187-42h13v13H187Z" fill="#fff"/></g></g><g transform="translate(0 1)" clip-path="url(#c)"><g clip-path="url(#b)"><path d="M171-42h13v13H171Z" fill="#fff"/></g></g><g transform="translate(0 1)" clip-path="url(#e)"><g clip-path="url(#b)"><path d="M167-73h45v41H167Z" fill="#fff"/></g></g></g></svg>